<svg width="63" height="75" viewBox="0 0 63 75" fill="none" xmlns="http://www.w3.org/2000/svg">
<g filter="url(#filter0_d)">
<path fill-rule="evenodd" clip-rule="evenodd" d="M11.4583 15.167C11.4583 6.78717 18.4772 0 27.1375 0C35.7979 0 42.8168 6.78717 42.8168 15.167C42.8168 15.7673 42.7801 16.3676 42.7066 16.9434C42.6208 17.5927 42.4983 18.2421 42.3391 18.8669C42.3268 18.9404 42.3146 19.0016 42.2901 19.0629C41.4775 22.1423 40.4283 24.1594 39.3549 26.2228C37.7423 29.3228 36.0754 32.5273 35.0752 39.5959C35.0752 39.601 35.0731 39.6082 35.0706 39.6166C35.0671 39.6285 35.0629 39.6428 35.0629 39.6572C34.8792 40.7843 33.8747 41.1641 32.6498 41.1641H21.6375C20.4126 41.1641 19.3959 40.7843 19.2121 39.6572C19.2121 39.6521 19.21 39.6449 19.2076 39.6365C19.2041 39.6246 19.1999 39.6103 19.1999 39.5959C18.199 32.5225 16.5305 29.314 14.9169 26.2111C13.8447 24.1494 12.7967 22.1343 11.985 19.0629C11.9789 19.0323 11.9697 18.9986 11.9605 18.9649C11.9513 18.9312 11.9421 18.8975 11.936 18.8669C11.7645 18.2421 11.642 17.605 11.5685 16.9434C11.495 16.3554 11.4583 15.7673 11.4583 15.167ZM34.7322 44.6189C34.723 44.6311 34.7138 44.6434 34.7077 44.6556C34.699 44.6644 34.6964 44.6731 34.6957 44.6729C34.6954 44.6729 34.6954 44.6714 34.6954 44.6679C34.4872 44.9864 34.3647 45.2069 34.3647 45.599C34.3647 45.991 34.4872 46.1993 34.6832 46.5178C34.6899 46.5279 34.6967 46.5389 34.7037 46.5504C34.7221 46.5806 34.7423 46.6137 34.7689 46.6403C34.8914 46.8486 34.9649 47.0814 34.9649 47.3264C34.9649 47.5837 34.8914 47.8287 34.7567 48.037C34.7506 48.0492 34.7414 48.0615 34.7322 48.0737C34.723 48.086 34.7138 48.0982 34.7077 48.1105C34.4872 48.4412 34.3647 48.674 34.3647 49.0661C34.3647 49.4458 34.4872 49.6541 34.6832 49.9726C34.7016 49.9972 34.7169 50.0186 34.7322 50.04C34.7475 50.0615 34.7628 50.0829 34.7812 50.1074C34.9037 50.3157 34.9772 50.5485 34.9772 50.7935C34.9772 51.455 34.4504 52.0186 33.7277 52.2146C33.7094 52.2207 33.691 52.2238 33.6726 52.2269C33.6542 52.2299 33.6359 52.233 33.6175 52.2391C33.1479 52.3487 32.6682 52.3983 32.1818 52.4486C31.9069 52.477 31.6299 52.5056 31.3513 52.5454C31.2841 52.5454 31.2226 52.5569 31.1629 52.5681C31.1356 52.5733 31.1087 52.5783 31.0818 52.5821C30.3591 52.7169 29.7467 53.0967 29.3792 53.6113C28.9014 54.2238 28.0807 54.8854 27.1498 54.8854C26.1698 54.8854 25.3124 54.1871 24.8469 53.5377C24.4672 53.0722 23.8914 52.7169 23.2055 52.5944C23.1077 52.5822 23.0221 52.57 22.9365 52.5577L22.936 52.5576C22.6574 52.5178 22.3804 52.4892 22.1055 52.4608C21.6191 52.4105 21.1395 52.361 20.6698 52.2514C20.6515 52.2452 20.6331 52.2422 20.6147 52.2391C20.5963 52.2361 20.578 52.233 20.5596 52.2269C19.8369 52.0431 19.3101 51.4673 19.3101 50.8057C19.3101 50.5607 19.3836 50.3279 19.5061 50.1197C19.5175 50.1045 19.5289 50.0905 19.5399 50.0769C19.5645 50.0467 19.5872 50.0187 19.6041 49.9849C19.8124 49.6786 19.9226 49.4581 19.9226 49.0783C19.9226 48.674 19.8001 48.4535 19.5796 48.1227C19.5735 48.1105 19.5643 48.0982 19.5551 48.086C19.5459 48.0737 19.5368 48.0615 19.5306 48.0492C19.3959 47.8287 19.3224 47.5959 19.3224 47.3386C19.3224 47.0936 19.3959 46.8608 19.5184 46.6526C19.5429 46.6158 19.5674 46.5791 19.6041 46.5301C19.8124 46.2115 19.9226 45.991 19.9226 45.6112C19.9226 45.2192 19.8001 44.9987 19.5919 44.6801C19.5919 44.674 19.5888 44.6709 19.5857 44.6679C19.5827 44.6648 19.5796 44.6617 19.5796 44.6556L19.5796 44.6556C19.5551 44.6311 19.5306 44.6066 19.5184 44.5821C19.3836 44.3738 19.3101 44.1411 19.3101 43.8838C19.3101 43.8069 19.3055 43.7357 19.3013 43.6703C19.278 43.3087 19.2661 43.1242 20.1064 43.1242H34.1687C35.0138 43.1242 34.9969 43.3642 34.9733 43.7002C34.9692 43.7588 34.9649 43.8202 34.9649 43.8838C34.9649 44.1411 34.8914 44.3738 34.7567 44.5821C34.7506 44.5944 34.7414 44.6066 34.7322 44.6189Z" fill="#252626"/>
<mask id="mask0" mask-type="alpha" maskUnits="userSpaceOnUse" x="11" y="0" width="32" height="55">
<path fill-rule="evenodd" clip-rule="evenodd" d="M11.4583 15.167C11.4583 6.78717 18.4772 0 27.1375 0C35.7979 0 42.8168 6.78717 42.8168 15.167C42.8168 15.7673 42.7801 16.3676 42.7066 16.9434C42.6208 17.5927 42.4983 18.2421 42.3391 18.8669C42.3268 18.9404 42.3146 19.0016 42.2901 19.0629C41.4775 22.1423 40.4283 24.1594 39.3549 26.2228C37.7423 29.3228 36.0754 32.5273 35.0752 39.5959C35.0752 39.601 35.0731 39.6082 35.0706 39.6166C35.0671 39.6285 35.0629 39.6428 35.0629 39.6572C34.8792 40.7843 33.8747 41.1641 32.6498 41.1641H21.6375C20.4126 41.1641 19.3959 40.7843 19.2121 39.6572C19.2121 39.6521 19.21 39.6449 19.2076 39.6365C19.2041 39.6246 19.1999 39.6103 19.1999 39.5959C18.199 32.5225 16.5305 29.314 14.9169 26.2111C13.8447 24.1494 12.7967 22.1343 11.985 19.0629C11.9789 19.0323 11.9697 18.9986 11.9605 18.9649C11.9513 18.9312 11.9421 18.8975 11.936 18.8669C11.7645 18.2421 11.642 17.605 11.5685 16.9434C11.495 16.3554 11.4583 15.7673 11.4583 15.167ZM34.7322 44.6189C34.723 44.6311 34.7138 44.6434 34.7077 44.6556C34.699 44.6644 34.6964 44.6731 34.6957 44.6729C34.6954 44.6729 34.6954 44.6714 34.6954 44.6679C34.4872 44.9864 34.3647 45.2069 34.3647 45.599C34.3647 45.991 34.4872 46.1993 34.6832 46.5178C34.6899 46.5279 34.6967 46.5389 34.7037 46.5504C34.7221 46.5806 34.7423 46.6137 34.7689 46.6403C34.8914 46.8486 34.9649 47.0814 34.9649 47.3264C34.9649 47.5837 34.8914 47.8287 34.7567 48.037C34.7506 48.0492 34.7414 48.0615 34.7322 48.0737C34.723 48.086 34.7138 48.0982 34.7077 48.1105C34.4872 48.4412 34.3647 48.674 34.3647 49.0661C34.3647 49.4458 34.4872 49.6541 34.6832 49.9726C34.7016 49.9972 34.7169 50.0186 34.7322 50.04C34.7475 50.0615 34.7628 50.0829 34.7812 50.1074C34.9037 50.3157 34.9772 50.5485 34.9772 50.7935C34.9772 51.455 34.4504 52.0186 33.7277 52.2146C33.7094 52.2207 33.691 52.2238 33.6726 52.2269C33.6542 52.2299 33.6359 52.233 33.6175 52.2391C33.1479 52.3487 32.6682 52.3983 32.1818 52.4486C31.9069 52.477 31.6299 52.5056 31.3513 52.5454C31.2841 52.5454 31.2226 52.5569 31.1629 52.5681C31.1356 52.5733 31.1087 52.5783 31.0818 52.5821C30.3591 52.7169 29.7467 53.0967 29.3792 53.6113C28.9014 54.2238 28.0807 54.8854 27.1498 54.8854C26.1698 54.8854 25.3124 54.1871 24.8469 53.5377C24.4672 53.0722 23.8914 52.7169 23.2055 52.5944C23.1077 52.5822 23.0221 52.57 22.9365 52.5577L22.936 52.5576C22.6574 52.5178 22.3804 52.4892 22.1055 52.4608C21.6191 52.4105 21.1395 52.361 20.6698 52.2514C20.6515 52.2452 20.6331 52.2422 20.6147 52.2391C20.5963 52.2361 20.578 52.233 20.5596 52.2269C19.8369 52.0431 19.3101 51.4673 19.3101 50.8057C19.3101 50.5607 19.3836 50.3279 19.5061 50.1197C19.5175 50.1045 19.5289 50.0905 19.5399 50.0769C19.5645 50.0467 19.5872 50.0187 19.6041 49.9849C19.8124 49.6786 19.9226 49.4581 19.9226 49.0783C19.9226 48.674 19.8001 48.4535 19.5796 48.1227C19.5735 48.1105 19.5643 48.0982 19.5551 48.086C19.5459 48.0737 19.5368 48.0615 19.5306 48.0492C19.3959 47.8287 19.3224 47.5959 19.3224 47.3386C19.3224 47.0936 19.3959 46.8608 19.5184 46.6526C19.5429 46.6158 19.5674 46.5791 19.6041 46.5301C19.8124 46.2115 19.9226 45.991 19.9226 45.6112C19.9226 45.2192 19.8001 44.9987 19.5919 44.6801C19.5919 44.674 19.5888 44.6709 19.5857 44.6679C19.5827 44.6648 19.5796 44.6617 19.5796 44.6556L19.5796 44.6556C19.5551 44.6311 19.5306 44.6066 19.5184 44.5821C19.3836 44.3738 19.3101 44.1411 19.3101 43.8838C19.3101 43.8069 19.3055 43.7357 19.3013 43.6703C19.278 43.3087 19.2661 43.1242 20.1064 43.1242H34.1687C35.0138 43.1242 34.9969 43.3642 34.9733 43.7002C34.9692 43.7588 34.9649 43.8202 34.9649 43.8838C34.9649 44.1411 34.8914 44.3738 34.7567 44.5821C34.7506 44.5944 34.7414 44.6066 34.7322 44.6189Z" fill="white"/>
</mask>
<g mask="url(#mask0)">
<rect width="55" height="55" fill="#252626"/>
</g>
</g>
<defs>
<filter id="filter0_d" x="0" y="0" width="75" height="75" filterUnits="userSpaceOnUse" color-interpolation-filters="sRGB">
<feFlood flood-opacity="0" result="BackgroundImageFix"/>
<feColorMatrix in="SourceAlpha" type="matrix" values="0 0 0 0 0 0 0 0 0 0 0 0 0 0 0 0 0 0 127 0"/>
<feOffset dx="10" dy="10"/>
<feGaussianBlur stdDeviation="5"/>
<feColorMatrix type="matrix" values="0 0 0 0 0 0 0 0 0 0 0 0 0 0 0 0 0 0 0.25 0"/>
<feBlend mode="normal" in2="BackgroundImageFix" result="effect1_dropShadow"/>
<feBlend mode="normal" in="SourceGraphic" in2="effect1_dropShadow" result="shape"/>
</filter>
</defs>
</svg>
