<svg width="24" height="24" viewBox="0 0 24 24" fill="none" xmlns="http://www.w3.org/2000/svg">
<path fill-rule="evenodd" clip-rule="evenodd" d="M22.0715 0H2.04968C0.956099 0 0 0.7875 0 1.86875V21.9375C0 23.025 0.956099 23.9937 2.04968 23.9937H22.0653C23.1651 23.9937 23.99 23.0187 23.99 21.9375V1.86875C23.9962 0.7875 23.1651 0 22.0715 0ZM7.43651 20H3.99955V9.3125H7.43651V20ZM5.83676 7.6875H5.81177C4.71194 7.6875 3.99955 6.86875 3.99955 5.84375C3.99955 4.8 4.73069 4 5.85551 4C6.98033 4 7.66772 4.79375 7.69272 5.84375C7.69272 6.86875 6.98033 7.6875 5.83676 7.6875ZM19.9971 20H16.5601V14.1563C16.5601 12.7563 16.0602 11.8 14.8167 11.8C13.8668 11.8 13.3044 12.4438 13.0544 13.0688C12.9607 13.2938 12.9357 13.6 12.9357 13.9125V20H9.49874V9.3125H12.9357V10.8C13.4356 10.0875 14.2168 9.0625 16.0352 9.0625C18.2911 9.0625 19.9971 10.55 19.9971 13.7563V20Z" fill="white"/>
<mask id="mask0" mask-type="alpha" maskUnits="userSpaceOnUse" x="0" y="0" width="24" height="24">
<path fill-rule="evenodd" clip-rule="evenodd" d="M22.0715 0H2.04968C0.956099 0 0 0.7875 0 1.86875V21.9375C0 23.025 0.956099 23.9937 2.04968 23.9937H22.0653C23.1651 23.9937 23.99 23.0187 23.99 21.9375V1.86875C23.9962 0.7875 23.1651 0 22.0715 0ZM7.43651 20H3.99955V9.3125H7.43651V20ZM5.83676 7.6875H5.81177C4.71194 7.6875 3.99955 6.86875 3.99955 5.84375C3.99955 4.8 4.73069 4 5.85551 4C6.98033 4 7.66772 4.79375 7.69272 5.84375C7.69272 6.86875 6.98033 7.6875 5.83676 7.6875ZM19.9971 20H16.5601V14.1563C16.5601 12.7563 16.0602 11.8 14.8167 11.8C13.8668 11.8 13.3044 12.4438 13.0544 13.0688C12.9607 13.2938 12.9357 13.6 12.9357 13.9125V20H9.49874V9.3125H12.9357V10.8C13.4356 10.0875 14.2168 9.0625 16.0352 9.0625C18.2911 9.0625 19.9971 10.55 19.9971 13.7563V20Z" fill="white"/>
</mask>
<g mask="url(#mask0)">
<rect width="24" height="24" fill="white"/>
</g>
</svg>
