<svg width="210" height="25" viewBox="0 0 210 25" fill="none" xmlns="http://www.w3.org/2000/svg">
<path d="M9.96 24.24C8.24 24.24 6.69 23.89 5.31 23.19C3.95 22.47 2.88 21.48 2.1 20.22C1.34 18.96 0.96 17.53 0.96 15.93C0.96 14.33 1.34 12.9 2.1 11.64C2.88 10.38 3.95 9.4 5.31 8.7C6.69 7.98 8.24 7.62 9.96 7.62C11.66 7.62 13.14 7.98 14.4 8.7C15.68 9.4 16.61 10.41 17.19 11.73L13.56 13.68C12.72 12.2 11.51 11.46 9.93 11.46C8.71 11.46 7.7 11.86 6.9 12.66C6.1 13.46 5.7 14.55 5.7 15.93C5.7 17.31 6.1 18.4 6.9 19.2C7.7 20 8.71 20.4 9.93 20.4C11.53 20.4 12.74 19.66 13.56 18.18L17.19 20.16C16.61 21.44 15.68 22.44 14.4 23.16C13.14 23.88 11.66 24.24 9.96 24.24ZM27.8946 7.62C30.3946 7.62 32.3146 8.22 33.6546 9.42C34.9946 10.6 35.6646 12.39 35.6646 14.79V24H31.2846V21.99C30.4046 23.49 28.7646 24.24 26.3646 24.24C25.1246 24.24 24.0446 24.03 23.1246 23.61C22.2246 23.19 21.5346 22.61 21.0546 21.87C20.5746 21.13 20.3346 20.29 20.3346 19.35C20.3346 17.85 20.8946 16.67 22.0146 15.81C23.1546 14.95 24.9046 14.52 27.2646 14.52H30.9846C30.9846 13.5 30.6746 12.72 30.0546 12.18C29.4346 11.62 28.5046 11.34 27.2646 11.34C26.4046 11.34 25.5546 11.48 24.7146 11.76C23.8946 12.02 23.1946 12.38 22.6146 12.84L20.9346 9.57C21.8146 8.95 22.8646 8.47 24.0846 8.13C25.3246 7.79 26.5946 7.62 27.8946 7.62ZM27.5346 21.09C28.3346 21.09 29.0446 20.91 29.6646 20.55C30.2846 20.17 30.7246 19.62 30.9846 18.9V17.25H27.7746C25.8546 17.25 24.8946 17.88 24.8946 19.14C24.8946 19.74 25.1246 20.22 25.5846 20.58C26.0646 20.92 26.7146 21.09 27.5346 21.09ZM45.8702 9.99C46.4302 9.21 47.1802 8.62 48.1202 8.22C49.0802 7.82 50.1802 7.62 51.4202 7.62V11.94C50.9002 11.9 50.5502 11.88 50.3702 11.88C49.0302 11.88 47.9802 12.26 47.2202 13.02C46.4602 13.76 46.0802 14.88 46.0802 16.38V24H41.4002V7.86H45.8702V9.99ZM71.9965 1.74V24H67.5265V22.14C66.3665 23.54 64.6865 24.24 62.4865 24.24C60.9665 24.24 59.5865 23.9 58.3465 23.22C57.1265 22.54 56.1665 21.57 55.4665 20.31C54.7665 19.05 54.4165 17.59 54.4165 15.93C54.4165 14.27 54.7665 12.81 55.4665 11.55C56.1665 10.29 57.1265 9.32 58.3465 8.64C59.5865 7.96 60.9665 7.62 62.4865 7.62C64.5465 7.62 66.1565 8.27 67.3165 9.57V1.74H71.9965ZM63.2965 20.4C64.4765 20.4 65.4565 20 66.2365 19.2C67.0165 18.38 67.4065 17.29 67.4065 15.93C67.4065 14.57 67.0165 13.49 66.2365 12.69C65.4565 11.87 64.4765 11.46 63.2965 11.46C62.0965 11.46 61.1065 11.87 60.3265 12.69C59.5465 13.49 59.1565 14.57 59.1565 15.93C59.1565 17.29 59.5465 18.38 60.3265 19.2C61.1065 20 62.0965 20.4 63.2965 20.4ZM77.828 7.86H82.508V24H77.828V7.86ZM80.168 5.61C79.308 5.61 78.608 5.36 78.068 4.86C77.528 4.36 77.258 3.74 77.258 3C77.258 2.26 77.528 1.64 78.068 1.14C78.608 0.639999 79.308 0.389998 80.168 0.389998C81.028 0.389998 81.728 0.629999 82.268 1.11C82.808 1.59 83.078 2.19 83.078 2.91C83.078 3.69 82.808 4.34 82.268 4.86C81.728 5.36 81.028 5.61 80.168 5.61ZM98.1614 7.62C100.161 7.62 101.771 8.22 102.991 9.42C104.231 10.62 104.851 12.4 104.851 14.76V24H100.171V15.48C100.171 14.2 99.8914 13.25 99.3314 12.63C98.7714 11.99 97.9614 11.67 96.9014 11.67C95.7214 11.67 94.7814 12.04 94.0814 12.78C93.3814 13.5 93.0314 14.58 93.0314 16.02V24H88.3514V7.86H92.8214V9.75C93.4414 9.07 94.2114 8.55 95.1314 8.19C96.0514 7.81 97.0614 7.62 98.1614 7.62ZM118.449 24.24C116.749 24.24 115.219 23.89 113.859 23.19C112.519 22.47 111.469 21.48 110.709 20.22C109.949 18.96 109.569 17.53 109.569 15.93C109.569 14.33 109.949 12.9 110.709 11.64C111.469 10.38 112.519 9.4 113.859 8.7C115.219 7.98 116.749 7.62 118.449 7.62C120.149 7.62 121.669 7.98 123.009 8.7C124.349 9.4 125.399 10.38 126.159 11.64C126.919 12.9 127.299 14.33 127.299 15.93C127.299 17.53 126.919 18.96 126.159 20.22C125.399 21.48 124.349 22.47 123.009 23.19C121.669 23.89 120.149 24.24 118.449 24.24ZM118.449 20.4C119.649 20.4 120.629 20 121.389 19.2C122.169 18.38 122.559 17.29 122.559 15.93C122.559 14.57 122.169 13.49 121.389 12.69C120.629 11.87 119.649 11.46 118.449 11.46C117.249 11.46 116.259 11.87 115.479 12.69C114.699 13.49 114.309 14.57 114.309 15.93C114.309 17.29 114.699 18.38 115.479 19.2C116.259 20 117.249 20.4 118.449 20.4ZM167.844 7.86L161.994 24H157.494L153.864 13.98L150.114 24H145.614L139.794 7.86H144.204L148.014 18.78L151.974 7.86H155.934L159.774 18.78L163.704 7.86H167.844ZM186.89 15.99C186.89 16.05 186.86 16.47 186.8 17.25H174.59C174.81 18.25 175.33 19.04 176.15 19.62C176.97 20.2 177.99 20.49 179.21 20.49C180.05 20.49 180.79 20.37 181.43 20.13C182.09 19.87 182.7 19.47 183.26 18.93L185.75 21.63C184.23 23.37 182.01 24.24 179.09 24.24C177.27 24.24 175.66 23.89 174.26 23.19C172.86 22.47 171.78 21.48 171.02 20.22C170.26 18.96 169.88 17.53 169.88 15.93C169.88 14.35 170.25 12.93 170.99 11.67C171.75 10.39 172.78 9.4 174.08 8.7C175.4 7.98 176.87 7.62 178.49 7.62C180.07 7.62 181.5 7.96 182.78 8.64C184.06 9.32 185.06 10.3 185.78 11.58C186.52 12.84 186.89 14.31 186.89 15.99ZM178.52 11.16C177.46 11.16 176.57 11.46 175.85 12.06C175.13 12.66 174.69 13.48 174.53 14.52H182.48C182.32 13.5 181.88 12.69 181.16 12.09C180.44 11.47 179.56 11.16 178.52 11.16ZM201.046 7.62C202.546 7.62 203.906 7.97 205.126 8.67C206.366 9.35 207.336 10.32 208.036 11.58C208.736 12.82 209.086 14.27 209.086 15.93C209.086 17.59 208.736 19.05 208.036 20.31C207.336 21.55 206.366 22.52 205.126 23.22C203.906 23.9 202.546 24.24 201.046 24.24C198.826 24.24 197.136 23.54 195.976 22.14V24H191.506V1.74H196.186V9.57C197.366 8.27 198.986 7.62 201.046 7.62ZM200.236 20.4C201.436 20.4 202.416 20 203.176 19.2C203.956 18.38 204.346 17.29 204.346 15.93C204.346 14.57 203.956 13.49 203.176 12.69C202.416 11.87 201.436 11.46 200.236 11.46C199.036 11.46 198.046 11.87 197.266 12.69C196.506 13.49 196.126 14.57 196.126 15.93C196.126 17.29 196.506 18.38 197.266 19.2C198.046 20 199.036 20.4 200.236 20.4Z" fill="white"/>
</svg>
