<svg width="75" height="75" viewBox="0 0 75 75" fill="none" xmlns="http://www.w3.org/2000/svg">
<g filter="url(#filter0_d)">
<path fill-rule="evenodd" clip-rule="evenodd" d="M27.5 0C12.3121 0 0 12.3121 0 27.5C0 42.6879 12.3121 55 27.5 55C42.6879 55 55 42.6879 55 27.5C55 12.3121 42.6879 0 27.5 0ZM8.74978 27.1714C7.73424 26.487 7.6143 25.312 8.28977 24.445C9.58484 22.7823 11.2024 21.607 13.7667 21.607C16.3309 21.607 17.9622 22.7847 19.2489 24.452C19.9197 25.3207 19.7111 26.5404 18.784 27.1706C18.4261 27.4131 18.0055 27.5 17.5659 27.5C16.9014 27.5 16.272 27.2399 15.882 26.736C15.4648 26.1939 14.9464 25.5357 13.7667 25.5357C12.5929 25.5357 12.0703 26.1971 11.6466 26.7414C11.2583 27.241 10.6308 27.4999 9.96849 27.5C9.52886 27.4999 9.10752 27.4123 8.74978 27.1714ZM44.4718 34.2452C41.5698 39.8648 34.9081 43.2141 27.5003 43.2141C19.9047 43.2141 13.0689 39.7477 10.49 34.1689C10.0403 33.1942 10.4666 32.0348 11.4395 31.5838C11.7019 31.4637 11.9752 31.4042 12.2569 31.4042C13.0135 31.4042 13.7078 31.8473 14.0256 32.5335C15.9797 36.7611 21.3945 39.2855 27.5003 39.2855C33.467 39.2855 38.7703 36.7971 41.0112 32.4577C41.3483 31.807 42.0115 31.4034 42.7427 31.4034C43.0536 31.4034 43.3639 31.4797 43.6399 31.6239C44.5892 32.1156 44.964 33.2924 44.4718 34.2452ZM46.2841 27.1705C45.9262 27.413 45.5056 27.4999 45.066 27.4999C44.4016 27.4999 43.7721 27.2397 43.382 26.7359C42.9648 26.1937 42.4465 25.5356 41.2667 25.5356C40.0929 25.5356 39.5704 26.1969 39.1467 26.7413C38.7584 27.2408 38.1308 27.4998 37.4685 27.4999C37.0289 27.4999 36.6074 27.4123 36.2497 27.1713C35.2342 26.487 35.1143 25.312 35.7898 24.445C37.0848 22.7823 38.7024 21.607 41.2667 21.607C43.8311 21.607 45.4623 22.7847 46.749 24.452C47.4198 25.3207 47.2112 26.5404 46.2841 27.1705Z" fill="#252626"/>
<mask id="mask0" mask-type="alpha" maskUnits="userSpaceOnUse" x="0" y="0" width="55" height="55">
<path fill-rule="evenodd" clip-rule="evenodd" d="M27.5 0C12.3121 0 0 12.3121 0 27.5C0 42.6879 12.3121 55 27.5 55C42.6879 55 55 42.6879 55 27.5C55 12.3121 42.6879 0 27.5 0ZM8.74978 27.1714C7.73424 26.487 7.6143 25.312 8.28977 24.445C9.58484 22.7823 11.2024 21.607 13.7667 21.607C16.3309 21.607 17.9622 22.7847 19.2489 24.452C19.9197 25.3207 19.7111 26.5404 18.784 27.1706C18.4261 27.4131 18.0055 27.5 17.5659 27.5C16.9014 27.5 16.272 27.2399 15.882 26.736C15.4648 26.1939 14.9464 25.5357 13.7667 25.5357C12.5929 25.5357 12.0703 26.1971 11.6466 26.7414C11.2583 27.241 10.6308 27.4999 9.96849 27.5C9.52886 27.4999 9.10752 27.4123 8.74978 27.1714ZM44.4718 34.2452C41.5698 39.8648 34.9081 43.2141 27.5003 43.2141C19.9047 43.2141 13.0689 39.7477 10.49 34.1689C10.0403 33.1942 10.4666 32.0348 11.4395 31.5838C11.7019 31.4637 11.9752 31.4042 12.2569 31.4042C13.0135 31.4042 13.7078 31.8473 14.0256 32.5335C15.9797 36.7611 21.3945 39.2855 27.5003 39.2855C33.467 39.2855 38.7703 36.7971 41.0112 32.4577C41.3483 31.807 42.0115 31.4034 42.7427 31.4034C43.0536 31.4034 43.3639 31.4797 43.6399 31.6239C44.5892 32.1156 44.964 33.2924 44.4718 34.2452ZM46.2841 27.1705C45.9262 27.413 45.5056 27.4999 45.066 27.4999C44.4016 27.4999 43.7721 27.2397 43.382 26.7359C42.9648 26.1937 42.4465 25.5356 41.2667 25.5356C40.0929 25.5356 39.5704 26.1969 39.1467 26.7413C38.7584 27.2408 38.1308 27.4998 37.4685 27.4999C37.0289 27.4999 36.6074 27.4123 36.2497 27.1713C35.2342 26.487 35.1143 25.312 35.7898 24.445C37.0848 22.7823 38.7024 21.607 41.2667 21.607C43.8311 21.607 45.4623 22.7847 46.749 24.452C47.4198 25.3207 47.2112 26.5404 46.2841 27.1705Z" fill="white"/>
</mask>
<g mask="url(#mask0)">
<rect width="55" height="55" fill="#252626"/>
</g>
</g>
<defs>
<filter id="filter0_d" x="0" y="0" width="75" height="75" filterUnits="userSpaceOnUse" color-interpolation-filters="sRGB">
<feFlood flood-opacity="0" result="BackgroundImageFix"/>
<feColorMatrix in="SourceAlpha" type="matrix" values="0 0 0 0 0 0 0 0 0 0 0 0 0 0 0 0 0 0 127 0"/>
<feOffset dx="10" dy="10"/>
<feGaussianBlur stdDeviation="5"/>
<feColorMatrix type="matrix" values="0 0 0 0 0 0 0 0 0 0 0 0 0 0 0 0 0 0 0.25 0"/>
<feBlend mode="normal" in2="BackgroundImageFix" result="effect1_dropShadow"/>
<feBlend mode="normal" in="SourceGraphic" in2="effect1_dropShadow" result="shape"/>
</filter>
</defs>
</svg>
