<svg width="76" height="75" viewBox="0 0 76 75" fill="none" xmlns="http://www.w3.org/2000/svg">
<g filter="url(#filter0_d)">
<path fill-rule="evenodd" clip-rule="evenodd" d="M52.7874 10.2774L45.8659 17.2229L39.116 15.9979L37.9032 9.24847L44.8246 2.30304C43.2689 0.747362 41.0515 0.0368946 39.41 0.122641C37.7562 0.208387 34.2281 1.13934 31.4962 4.04246C28.8502 6.83533 26.0693 12.0413 28.5317 17.8231C28.8257 18.5213 29.1564 19.44 28.1764 20.42C27.1841 21.3999 1.83809 45.2618 1.83809 45.2618C-0.538486 47.3075 -0.366981 51.0926 1.82584 53.2975C4.0554 55.4901 7.81627 55.6249 9.86208 53.2607C9.86208 53.2607 33.5298 28.0514 34.6936 26.9122C35.7349 25.8955 36.6659 26.2385 37.2907 26.5569C41.6518 28.8108 47.8627 26.8509 51.0846 23.6293C54.3064 20.4077 54.8945 17.2964 54.9925 15.7039C55.0905 14.1238 54.5392 12.0291 52.7874 10.2774ZM7.38765 50.4925C6.61588 51.2519 5.36634 51.2519 4.60681 50.4925C3.84729 49.7208 3.84729 48.4713 4.60681 47.7118C5.37859 46.9524 6.62813 46.9524 7.38765 47.7118C8.14717 48.4836 8.14717 49.733 7.38765 50.4925Z" fill="#252626"/>
<mask id="mask0" mask-type="alpha" maskUnits="userSpaceOnUse" x="0" y="0" width="56" height="55">
<path fill-rule="evenodd" clip-rule="evenodd" d="M52.7874 10.2774L45.8659 17.2229L39.116 15.9979L37.9032 9.24847L44.8246 2.30304C43.2689 0.747362 41.0515 0.0368946 39.41 0.122641C37.7562 0.208387 34.2281 1.13934 31.4962 4.04246C28.8502 6.83533 26.0693 12.0413 28.5317 17.8231C28.8257 18.5213 29.1564 19.44 28.1764 20.42C27.1841 21.3999 1.83809 45.2618 1.83809 45.2618C-0.538486 47.3075 -0.366981 51.0926 1.82584 53.2975C4.0554 55.4901 7.81627 55.6249 9.86208 53.2607C9.86208 53.2607 33.5298 28.0514 34.6936 26.9122C35.7349 25.8955 36.6659 26.2385 37.2907 26.5569C41.6518 28.8108 47.8627 26.8509 51.0846 23.6293C54.3064 20.4077 54.8945 17.2964 54.9925 15.7039C55.0905 14.1238 54.5392 12.0291 52.7874 10.2774ZM7.38765 50.4925C6.61588 51.2519 5.36634 51.2519 4.60681 50.4925C3.84729 49.7208 3.84729 48.4713 4.60681 47.7118C5.37859 46.9524 6.62813 46.9524 7.38765 47.7118C8.14717 48.4836 8.14717 49.733 7.38765 50.4925Z" fill="white"/>
</mask>
<g mask="url(#mask0)">
<rect width="55" height="55" fill="#252626"/>
</g>
</g>
<defs>
<filter id="filter0_d" x="0" y="0" width="75.0033" height="75" filterUnits="userSpaceOnUse" color-interpolation-filters="sRGB">
<feFlood flood-opacity="0" result="BackgroundImageFix"/>
<feColorMatrix in="SourceAlpha" type="matrix" values="0 0 0 0 0 0 0 0 0 0 0 0 0 0 0 0 0 0 127 0"/>
<feOffset dx="10" dy="10"/>
<feGaussianBlur stdDeviation="5"/>
<feColorMatrix type="matrix" values="0 0 0 0 0 0 0 0 0 0 0 0 0 0 0 0 0 0 0.25 0"/>
<feBlend mode="normal" in2="BackgroundImageFix" result="effect1_dropShadow"/>
<feBlend mode="normal" in="SourceGraphic" in2="effect1_dropShadow" result="shape"/>
</filter>
</defs>
</svg>
