<svg width="24" height="24" viewBox="0 0 24 24" fill="none" xmlns="http://www.w3.org/2000/svg">
<path fill-rule="evenodd" clip-rule="evenodd" d="M23.9951 4.31356C23.1106 4.70509 22.165 4.9695 21.1686 5.09153C22.1853 4.48136 22.9682 3.51526 23.3342 2.36611C22.3836 2.93051 21.3313 3.34238 20.2078 3.56102C19.308 2.6 18.0269 2 16.6136 2C13.8938 2 11.6926 4.20678 11.6926 6.92712C11.6926 7.31356 11.7332 7.68983 11.8197 8.05085C7.72727 7.84746 4.09751 5.88475 1.67258 2.9C1.25063 3.62712 1.00662 4.47627 1.00662 5.37628C1.00662 7.08475 1.88101 8.59492 3.20278 9.47966C2.38938 9.45933 1.62683 9.2356 0.965947 8.86441C0.965947 8.88475 0.965947 8.90509 0.965947 8.92543C0.965947 11.3153 2.6639 13.3034 4.91599 13.7559C4.50421 13.8678 4.06701 13.9288 3.61964 13.9288C3.30445 13.9288 2.99435 13.8983 2.69441 13.8373C3.3197 15.7949 5.13967 17.2186 7.29516 17.2593C5.61245 18.5814 3.48746 19.3695 1.17946 19.3695C0.782934 19.3695 0.391489 19.3441 0.00512695 19.2983C2.17587 20.7119 4.76347 21.5254 7.53918 21.5254C16.6034 21.5254 21.555 14.0153 21.555 7.5017C21.555 7.28814 21.5499 7.07458 21.5397 6.86611C22.5005 6.1695 23.3342 5.30509 23.9951 4.31356Z" fill="white"/>
<mask id="mask0" mask-type="alpha" maskUnits="userSpaceOnUse" x="0" y="2" width="24" height="20">
<path fill-rule="evenodd" clip-rule="evenodd" d="M23.9951 4.31356C23.1106 4.70509 22.165 4.9695 21.1686 5.09153C22.1853 4.48136 22.9682 3.51526 23.3342 2.36611C22.3836 2.93051 21.3313 3.34238 20.2078 3.56102C19.308 2.6 18.0269 2 16.6136 2C13.8938 2 11.6926 4.20678 11.6926 6.92712C11.6926 7.31356 11.7332 7.68983 11.8197 8.05085C7.72727 7.84746 4.09751 5.88475 1.67258 2.9C1.25063 3.62712 1.00662 4.47627 1.00662 5.37628C1.00662 7.08475 1.88101 8.59492 3.20278 9.47966C2.38938 9.45933 1.62683 9.2356 0.965947 8.86441C0.965947 8.88475 0.965947 8.90509 0.965947 8.92543C0.965947 11.3153 2.6639 13.3034 4.91599 13.7559C4.50421 13.8678 4.06701 13.9288 3.61964 13.9288C3.30445 13.9288 2.99435 13.8983 2.69441 13.8373C3.3197 15.7949 5.13967 17.2186 7.29516 17.2593C5.61245 18.5814 3.48746 19.3695 1.17946 19.3695C0.782934 19.3695 0.391489 19.3441 0.00512695 19.2983C2.17587 20.7119 4.76347 21.5254 7.53918 21.5254C16.6034 21.5254 21.555 14.0153 21.555 7.5017C21.555 7.28814 21.5499 7.07458 21.5397 6.86611C22.5005 6.1695 23.3342 5.30509 23.9951 4.31356Z" fill="white"/>
</mask>
<g mask="url(#mask0)">
<rect width="24" height="24" fill="white"/>
</g>
</svg>
